HIERARCHY
ROOT Hips
{
    OFFSET 0.000000 0.000000 0.000000
    CHANNELS 6 Xposition Yposition Zposition Zrotation Xrotation Yrotation
        JOINT Chest
        {
            OFFSET -0.000000 34.099812 -0.000000
            CHANNELS 3 Zrotation Xrotation Yrotation
            JOINT Neck
            {
                OFFSET -0.000000 25.785578 0.000000
                CHANNELS 3 Zrotation Xrotation Yrotation
                JOINT Head
                {
                    OFFSET -0.000000 11.061110 0.000000
                    CHANNELS 3 Zrotation Xrotation Yrotation
                    End Site
                    {
                        OFFSET -0.000000 17.094444 0.000000
                    }
                }
            }
            JOINT LeftCollar
            {
                OFFSET -0.000000 25.785578 0.000000
                CHANNELS 3 Zrotation Xrotation Yrotation
                JOINT LeftShoulder
                {
                    OFFSET 19.000000 -0.000000 0.000000
                    CHANNELS 3 Zrotation Xrotation Yrotation
                    JOINT LeftElbow
                    {
                        OFFSET 29.227484 0.000000 0.000000
                        CHANNELS 3 Zrotation Xrotation Yrotation
                        JOINT LeftWrist
                        {
                            OFFSET 22.377386 0.000000 0.000000
                            CHANNELS 3 Zrotation Xrotation Yrotation
                            End Site
                            {
                                OFFSET 0.000000 -15.083334 0.000000
                            }
                        }
                    }
                }
            }
            JOINT RightCollar
            {
                OFFSET -0.000000 25.785578 0.000000
                CHANNELS 3 Zrotation Xrotation Yrotation
                JOINT RightShoulder
                {
                    OFFSET -19.000000 0.000000 0.000000
                    CHANNELS 3 Zrotation Xrotation Yrotation
                    JOINT RightElbow
                    {
                        OFFSET -29.227484 0.000000 0.000000
                        CHANNELS 3 Zrotation Xrotation Yrotation
                        JOINT RightWrist
                        {
                            OFFSET -22.377386 0.000000 0.000000
                            CHANNELS 3 Zrotation Xrotation Yrotation
                            End Site
                            {
                                OFFSET -0.000000 -15.083334 0.000000
                            }
                        }
                    }
                }
            }
        }
    JOINT LeftHip
    {
        OFFSET 12.066666 0.000000 0.000000
        CHANNELS 3 Zrotation Xrotation Yrotation
        JOINT LeftKnee
        {
            OFFSET -0.000000 -38.619030 0.000000
            CHANNELS 3 Zrotation Xrotation Yrotation
            JOINT LeftAnkle
            {
                OFFSET -0.000000 -42.566540 0.000000
                CHANNELS 3 Zrotation Xrotation Yrotation
                End Site
                {
                    OFFSET -0.000000 -5.027778 17.094444
                }
            }
        }
    }
    JOINT RightHip
    {
        OFFSET -12.066666 0.000000 0.000000
        CHANNELS 3 Zrotation Xrotation Yrotation
        JOINT RightKnee
        {
            OFFSET -0.000000 -38.619030 0.000000
            CHANNELS 3 Zrotation Xrotation Yrotation
            JOINT RightAnkle
            {
                OFFSET -0.000000 -42.566540 0.000000
                CHANNELS 3 Zrotation Xrotation Yrotation
                End Site
                {
                    OFFSET -0.000000 -5.027778 17.094444
                }
            }
        }
    }
}
MOTION
Frames:    9
Frame Time:    0.010000
82.685204    86.828934    -4.504421    4.844156    0.895009    -66.631828    18.990263    10.825485    -22.046232    -3.596554    12.704490    3.946144    -16.179174    -3.343179    3.233577    -7.951801    -0.123808    -2.906039    -26.816179    33.765717    -45.048344    -13.058930    15.244592    -108.840439    112.260109    -0.067324    21.304245    9.894165    0.575455    -9.779791    11.570808    -3.356340    -9.692560    -34.182026    -30.140217    65.912842    -102.933777    25.513767    -68.837692    13.720200    -8.447516    -0.616384    -24.421978    25.706369    22.277746    -8.030451    -19.880999    31.337418    -0.673815    -26.127192    -0.570295    -2.909672    47.418083    12.631583    73.671883    -28.447481    -0.983344    
82.876305    86.939148    -4.835276    5.377657    0.895434    -66.350822    18.132595    11.591852    -21.677631    -7.604271    12.401070    8.217731    -13.718556    -4.865803    6.895606    -8.073049    -0.235794    4.871441    -27.931715    33.419678    -43.395176    -11.239353    13.876077    -109.730278    110.235565    1.196054    23.061804    8.792513    0.275602    -1.721429    11.321552    -2.928654    -11.262477    -36.627399    -26.978371    65.498520    -100.038864    35.125935    -81.669022    13.325282    -9.795583    1.294092    -22.772867    27.215385    22.009361    -8.749856    -20.142733    29.565250    -0.523399    -26.702925    -1.041226    -4.064188    47.834148    14.783266    73.671883    -28.447481    -0.983344    
83.027168    87.050522    -5.125997    5.788850    0.871520    -66.013199    17.852100    11.400270    -21.276690    -7.297500    12.733761    8.217585    -12.689154    -4.492145    6.904267    -7.798232    -0.283232    5.178430    -27.985807    34.121166    -42.630699    -10.254020    13.765632    -110.255249    110.167557    2.405844    24.859474    8.730084    0.058155    -2.075245    11.628128    -3.661992    -11.853312    -37.457146    -25.553221    65.053825    -96.283165    38.418976    -89.192856    13.860606    -9.669681    0.918378    -23.860764    25.812042    20.989065    -8.401333    -19.838415    30.780338    -0.525732    -27.225449    -0.945614    -4.041955    47.901680    14.376282    -7.459133    -26.539507    -12.009788    
82.941719    87.126663    -5.235098    5.633478    0.720000    -65.339638    17.650654    11.481617    -21.325367    -5.665476    11.873214    7.090246    -14.526713    -3.292967    6.065060    -7.562343    -0.317740    5.324066    -28.016249    34.789639    -41.734547    -9.837108    13.852732    -110.669632    110.877670    3.455453    25.684603    8.813941    -0.075069    -2.563946    12.192720    -3.939048    -12.294312    -37.902096    -24.937328    64.325699    -92.364609    40.706055    -95.424980    13.910592    -9.461160    1.264279    -23.505892    25.863737    19.243999    -12.611276    -21.438091    30.866423    -0.756384    -26.639881    -1.176782    -3.618435    47.412033    13.638938    -7.505105    -26.217417    -11.997825    
82.912033    87.221947    -5.409097    5.611570    0.712533    -64.653198    17.540703    11.369268    -21.293453    -5.286393    11.923805    6.644362    -14.504637    -3.161038    5.681910    -7.412158    -0.343329    5.441378    -29.013584    34.657005    -39.898090    -9.908780    14.741711    -110.989532    109.782814    3.925146    26.528967    9.045108    -0.162934    -2.963620    12.342260    -4.225536    -12.393476    -37.762589    -24.243713    63.900024    -88.163002    42.489948    -101.531265    13.449823    -10.103102    2.680288    -21.516235    27.404028    16.988274    -8.805106    -19.721773    30.555956    -0.864548    -26.332361    -1.375184    -3.248704    47.038235    12.784019    -8.745941    -25.470421    -11.890651    
82.933914    87.234940    -5.400637    5.409012    0.409808    -64.009285    17.400364    11.453645    -21.258139    -5.023015    12.281569    6.263065    -14.647729    -3.505218    5.264001    -7.299169    -0.366793    5.641224    -29.233047    35.444229    -38.706257    -10.138939    15.081585    -111.203789    109.291656    3.872547    25.266897    9.102086    -0.214499    -3.143502    12.544462    -4.792096    -12.774084    -37.183270    -23.596134    64.058418    -84.392426    44.230412    -107.023491    13.595970    -9.107506    1.712404    -22.328369    25.685808    16.415178    -8.666274    -19.432093    31.196068    -1.476075    -25.819971    -1.855815    -2.672754    46.770741    12.562191    -9.258818    -25.117531    -12.263532    
82.896385    87.411201    -5.788211    5.689116    0.759236    -63.285885    17.413879    11.443718    -21.110323    -4.529932    11.377842    5.854854    -14.720059    -2.923984    5.019853    -6.903407    -0.360319    6.165247    -29.833021    35.498993    -37.742157    -10.601252    16.319990    -111.399040    109.825035    4.220435    24.213093    8.938118    -0.244823    -3.352313    13.205513    -5.893605    -12.835945    -36.362236    -23.034021    64.542549    -79.318352    46.707691    -112.646500    14.066163    -9.599431    1.741948    -22.210016    25.498667    15.548822    -8.755428    -19.223312    31.126863    -1.146996    -25.932398    -1.712310    -2.177163    46.265373    11.042272    -8.996760    -24.835762    -11.834628    
82.853493    87.492516    -5.941947    5.459920    0.698396    -62.567158    17.521471    11.519844    -21.100927    -4.345128    11.388265    5.368412    -14.544086    -2.801790    4.568772    -6.525390    -0.322635    5.221024    -35.172451    31.255980    -32.662128    -12.889297    22.399809    -110.426628    110.616257    4.431855    25.883617    9.142059    -0.306016    -3.743419    13.510715    -6.170810    -12.786197    -35.943581    -22.740597    64.054100    -73.842178    47.329834    -119.555969    14.049458    -9.370506    2.475899    -21.320498    25.563717    13.934438    -9.016423    -19.064644    30.830858    -1.333818    -25.339035    -2.062041    -1.670777    45.723228    10.241520    -8.976838    -24.538540    -11.631026    
82.850739    87.617027    -6.101036    5.596482    0.716277    -62.079697    17.332218    11.264904    -20.746586    -4.221617    11.678044    5.020391    -14.414806    -3.038671    4.196778    -6.317939    -0.269344    5.181931    -37.671467    29.468369    -29.724186    -15.953890    25.810345    -109.297523    108.977676    4.103103    21.448469    9.353998    -0.299993    -3.708257    13.773520    -6.579406    -12.801211    -35.223183    -22.190216    64.197601    -70.345825    46.448467    -123.792297    13.974994    -9.212763    1.803761    -21.228495    24.591955    14.112780    -9.167478    -18.767950    30.523991    -1.538854    -25.175238    -2.461826    -1.436913    45.244095    10.538518    -9.350837    -24.122725    -12.150224    
